<svg width="20" height="15" viewBox="0 0 20 15" fill="none" xmlns="http://www.w3.org/2000/svg">
<path d="M13.9489 0.177445L19.8055 6.56617L19.8383 6.59931C19.9384 6.7085 19.9923 6.84901 20 6.99193V7.06746C19.9923 7.21038 19.9384 7.35089 19.8383 7.46009L19.8095 7.48692L13.9489 13.8819C13.7321 14.1185 13.3805 14.1185 13.1636 13.8819C12.9468 13.6454 12.9468 13.2618 13.1636 13.0252L18.1681 7.56386L0.555259 7.56434C0.248597 7.56434 0 7.2931 0 6.9585C0 6.62391 0.248597 6.35266 0.555259 6.35266L18.0377 6.35219L13.1636 1.03423C12.9468 0.797633 12.9468 0.414039 13.1636 0.177445C13.3805 -0.0591484 13.7321 -0.0591484 13.9489 0.177445ZM19.5085 6.95799L13.5563 13.4536L19.4456 7.02982L19.4457 7.02748L19.4129 6.9946L19.3793 6.95799H19.5085Z" fill="#E0AC69"/>
</svg>
