<svg width="21" height="22" viewBox="0 0 21 22" fill="none" xmlns="http://www.w3.org/2000/svg">
<path d="M5.75 2.53846V1" stroke="black" stroke-linecap="round"/>
<path d="M15.25 2.53846V1" stroke="black" stroke-linecap="round"/>
<path d="M7.65039 13.308L9.07539 11.7695V15.8721" stroke="black" stroke-linecap="round" stroke-linejoin="round"/>
<path d="M11.4502 14.8464V12.7952C11.4502 12.2287 11.8755 11.7695 12.4002 11.7695C12.9249 11.7695 13.3502 12.2287 13.3502 12.7952V14.8464C13.3502 15.4129 12.9249 15.8721 12.4002 15.8721C11.8755 15.8721 11.4502 15.4129 11.4502 14.8464Z" stroke="black" stroke-linecap="round"/>
<path d="M19.525 7.6665H14.8938H9.3125M1 7.6665H4.68125" stroke="black" stroke-linecap="round"/>
<path d="M12.4 20.9996H8.6C5.01732 20.9996 3.22599 20.9996 2.11299 19.7979C1 18.5964 1 16.6624 1 12.7945V10.7432C1 6.87526 1 4.94131 2.11299 3.73969C3.22599 2.53809 5.01732 2.53809 8.6 2.53809H12.4C15.9826 2.53809 17.7741 2.53809 18.887 3.73969C20 4.94131 20 6.87526 20 10.7432V12.7945C20 16.6624 20 18.5964 18.887 19.7979C18.2664 20.4679 17.4351 20.7643 16.2 20.8955" stroke="black" stroke-linecap="round"/>
</svg>
