<svg width="74" height="74" viewBox="0 0 74 74" fill="none" xmlns="http://www.w3.org/2000/svg">
<g clip-path="url(#clip0_1_88)">
<path d="M49.5361 58.3445L49.4048 58.0147L48.457 55.6342C50.1696 54.7197 51.3458 53.1465 51.8159 51.3645C51.8288 51.3344 51.8317 51.3 51.8346 51.2656C51.8419 51.2212 51.8548 51.1911 51.8621 51.1467C51.9081 51.0121 51.9443 50.79 51.9763 50.4948C51.9923 50.3472 52.004 50.2097 52.02 50.0621C52.2541 47.0615 52.3784 39.1537 55.7077 32.7443C56.3564 31.265 55.9421 29.4944 54.5041 28.9704C53.0661 28.4465 50.1947 28.0779 47.2063 34.634C46.6597 35.8485 46.2347 36.3666 45.8533 37.3907L36.7349 14.4892C36.1411 12.9978 34.4956 12.2657 33.0042 12.8595C31.5128 13.4533 30.7835 15.1476 31.3716 16.6246L36.7673 30.1762C36.773 30.1905 36.7687 30.2006 36.7787 30.2049C37.2812 31.4668 35.692 32.2325 34.9884 31.2998L28.5264 15.091C27.9326 13.5996 26.2871 12.8675 24.7957 13.4613C23.3 14.0651 22.565 15.745 23.1588 17.2364L29.6337 33.4983C29.8269 34.5677 28.3427 35.1171 27.8098 34.0916L22.1571 19.8947C21.5633 18.4033 19.9178 17.6712 18.4264 18.2651C16.935 18.8589 16.2001 20.5388 16.7939 22.0301L22.3609 36.0119C22.3622 36.0363 22.3694 36.075 22.3865 36.118C22.8718 37.337 21.3544 38.0741 20.6636 37.1944L16.6782 27.1849C16.0844 25.6935 14.4389 24.9614 12.9475 25.5553C11.4561 26.1491 10.7211 27.829 11.3149 29.3203L20.6803 52.8628C22.5873 57.6525 27.0367 60.6491 31.8544 60.9405L32.1456 61.6718L33.3789 64.7693C33.9727 66.2607 35.6569 66.9857 37.1483 66.3919L47.9179 62.1039C49.405 61.5201 50.1343 59.8258 49.5361 58.3445Z" fill="#E0AC69"/>
<path d="M58.5548 19.6158C58.5636 19.5126 58.5337 19.4165 58.4564 19.3476L55.9293 16.9646C55.852 16.8957 55.7574 16.8669 55.6557 16.8825C55.5539 16.8981 55.4793 16.961 55.4304 17.0469L52.4146 22.7832C52.3485 22.9093 52.3769 23.0641 52.4799 23.156C52.5057 23.1789 52.5415 23.2062 52.5716 23.2192C52.6618 23.258 52.7693 23.2567 52.8639 23.2024L58.4069 19.8491C58.4972 19.8048 58.5461 19.7189 58.5548 19.6158ZM62.1945 28.0268L62.094 24.5614C62.0884 24.4639 62.0441 24.3735 61.9625 24.3147C61.8809 24.2558 61.7821 24.237 61.686 24.2669L55.499 26.1904C55.3642 26.2274 55.2737 26.3548 55.2821 26.501C55.2891 26.6229 55.3591 26.7362 55.4694 26.7836L55.5195 26.8052L61.8028 28.3572C61.8973 28.3861 62.0034 28.3604 62.078 28.2975C62.1569 28.2245 62.2001 28.1243 62.1945 28.0268ZM48.7108 20.4285L50.2629 14.1453C50.2917 14.0507 50.266 13.9446 50.2031 13.87C50.1402 13.7954 50.0499 13.7565 49.9468 13.7478L46.4813 13.8483C46.3839 13.8539 46.2935 13.8982 46.2346 13.9798C46.1757 14.0614 46.1569 14.1602 46.1869 14.2563L48.106 20.4533C48.136 20.5494 48.2032 20.614 48.2834 20.6485C48.3235 20.6658 48.3679 20.673 48.4167 20.6702C48.5585 20.6719 48.6748 20.5674 48.7108 20.4285Z" fill="#00BEEA"/>
<path d="M55.3608 60.8517L54.2817 58.1414C55.9943 57.2269 57.1705 55.6538 57.6406 53.8717C57.6535 53.8416 57.6564 53.8072 57.6594 53.7728C57.6666 53.7284 57.6795 53.6983 57.6868 53.6539C57.7328 53.5193 57.769 53.2972 57.801 53.002C57.817 52.8545 57.8287 52.7169 57.8447 52.5693C58.0788 49.5687 58.2031 41.6609 61.5324 35.2515C62.1811 33.7722 61.7669 32.0016 60.3288 31.4777C58.8908 30.9537 56.0194 30.5851 53.031 37.1412C52.4845 38.3557 52.0594 38.8738 51.678 39.8979L42.5596 16.9964C41.9658 15.505 40.3203 14.7729 38.8289 15.3667C37.3375 15.9605 36.6082 17.6548 37.1963 19.1318L42.592 32.6834C42.5977 32.6977 42.5934 32.7078 42.6034 32.7121C43.1059 33.974 41.5168 34.7397 40.8131 33.807L34.3511 17.5982C33.7573 16.1068 32.1118 15.3747 30.6204 15.9685C29.129 16.5623 28.394 18.2422 28.9878 19.7336L35.4627 35.9955C35.6559 37.0649 34.1717 37.6143 33.6388 36.5888L27.9862 22.3919C27.3924 20.9005 25.7469 20.1684 24.2555 20.7622C22.7641 21.356 22.0291 23.0359 22.6229 24.5273L28.1899 38.5091C28.1913 38.5335 28.1984 38.5722 28.2155 38.6152C28.7008 39.8341 27.1834 40.5712 26.4926 39.6916L22.5072 29.6821C21.9134 28.1907 20.2679 27.4586 18.7765 28.0524C17.2851 28.6462 16.5501 30.3261 17.1439 31.8175L26.505 55.37C28.412 60.1597 32.8614 63.1563 37.6791 63.4477L39.2036 67.2765C39.7974 68.7679 41.4816 69.4929 42.973 68.8991L53.7426 64.6111C55.2297 64.0273 55.959 62.3331 55.3608 60.8517Z" fill="#FFD3B6"/>
<path d="M54.2744 58.1026C54.0334 58.2484 53.8011 58.3742 53.586 58.4598L45.3876 61.7158L45.4006 61.6857L43.2165 62.5636C41.3953 63.2887 39.5189 63.5623 37.689 63.4519L39.0479 66.8649C39.6383 66.9289 40.1743 66.8983 40.5758 66.7384L54.0414 61.3769C54.4286 61.2228 54.8361 60.911 55.2337 60.5118L54.2744 58.1026Z" fill="#E0AC69"/>
</g>
<defs>
<clipPath id="clip0_1_88">
<rect width="55.8814" height="55.8814" fill="white" transform="translate(22.0942) rotate(23.2896)"/>
</clipPath>
</defs>
</svg>
