<svg width="22" height="22" viewBox="0 0 22 22" fill="none" xmlns="http://www.w3.org/2000/svg">
<path d="M11 4.97266V17.0275" stroke="black" stroke-linecap="round"/>
<path d="M14.0137 8.43164C14.0137 7.05093 12.6645 5.93164 11 5.93164C9.33556 5.93164 7.98633 7.05093 7.98633 8.43164C7.98633 9.81234 9.33556 10.9316 11 10.9316C12.6645 10.9316 14.0137 12.0509 14.0137 13.4316C14.0137 14.8123 12.6645 15.9316 11 15.9316C9.33556 15.9316 7.98633 14.8123 7.98633 13.4316" stroke="black" stroke-linecap="round"/>
<path d="M6 2.33782C7.47087 1.48697 9.1786 1 11 1C16.5228 1 21 5.47715 21 11C21 16.5228 16.5228 21 11 21C5.47715 21 1 16.5228 1 11C1 9.1786 1.48697 7.47087 2.33782 6" stroke="black" stroke-linecap="round"/>
</svg>
