<svg width="22" height="22" viewBox="0 0 22 22" fill="none" xmlns="http://www.w3.org/2000/svg">
<path d="M9.82077 8.12213L12.2094 10.6396C12.2647 10.6979 12.3068 10.7602 12.3356 10.8263C12.3645 10.8925 12.3775 10.9647 12.3749 11.0429C12.3722 11.121 12.3551 11.1924 12.3234 11.257C12.2918 11.3216 12.2465 11.3815 12.1876 11.4368L9.67006 13.8255C9.63497 13.8582 9.59482 13.8855 9.54961 13.9076C9.50442 13.929 9.45617 13.9391 9.40485 13.9377C9.30222 13.935 9.21483 13.8991 9.14268 13.83C9.07055 13.7596 9.03595 13.6691 9.03885 13.5586L9.17547 8.35644C9.17839 8.24525 9.21862 8.15675 9.29615 8.09093C9.37369 8.02511 9.46255 7.99352 9.56273 7.99615C9.58839 7.99682 9.6741 8.03881 9.81985 8.12211" fill="white"/>
</svg>
