<svg width="23" height="22" viewBox="0 0 23 22" fill="none" xmlns="http://www.w3.org/2000/svg">
<path d="M21.7143 21H1" stroke="#2A9D8F" stroke-linecap="round"/>
<path d="M1 9.5715L5.20807 6.00375M21.7143 9.5715L13.2982 2.43595C12.1633 1.47383 10.5509 1.47383 9.41611 2.43595L8.60626 3.12259" stroke="#2A9D8F" stroke-linecap="round"/>
<path d="M15.2861 3.5974V1.51948C15.2861 1.23258 15.5146 1 15.7963 1H18.3474C18.6291 1 18.8576 1.23258 18.8576 1.51948V6.71429" stroke="#2A9D8F" stroke-linecap="round"/>
<path d="M3.14258 21.0002V8.14307" stroke="#2A9D8F" stroke-linecap="round"/>
<path d="M19.5713 8.14307V12.2574M19.5713 21.0002V16.3716" stroke="#2A9D8F" stroke-linecap="round"/>
<path d="M14.5711 21.0001V15.643C14.5711 14.1278 14.5711 13.3702 14.1005 12.8994C13.6297 12.4287 12.8721 12.4287 11.3569 12.4287C9.84165 12.4287 9.08402 12.4287 8.6133 12.8994M8.14258 21.0001V15.643" stroke="#2A9D8F" stroke-linecap="round" stroke-linejoin="round"/>
<path d="M13.1427 8.14286C13.1427 9.32636 12.3433 10.2857 11.357 10.2857C10.3708 10.2857 9.57129 9.32636 9.57129 8.14286C9.57129 6.95939 10.3708 6 11.357 6C12.3433 6 13.1427 6.95939 13.1427 8.14286Z" stroke="#2A9D8F"/>
</svg>
