<svg width="18" height="18" viewBox="0 0 18 18" fill="none" xmlns="http://www.w3.org/2000/svg">
<path d="M9.00023 7.74014C9.69608 7.74014 10.2602 7.17606 10.2602 6.48021C10.2602 5.78436 9.69608 5.22021 9.00023 5.22021C8.30438 5.22021 7.74023 5.78436 7.74023 6.48021C7.74023 7.17606 8.30438 7.74014 9.00023 7.74014Z" fill="black"/>
<path d="M9.00042 0.180176C5.52661 0.180176 2.7002 2.88336 2.7002 6.20481C2.7002 7.78653 3.42117 9.89005 4.84302 12.457C5.98493 14.518 7.30606 16.3816 7.99317 17.309C8.10931 17.4674 8.26111 17.5963 8.43627 17.6851C8.61151 17.7739 8.80516 17.8202 9.00158 17.8202C9.19805 17.8202 9.3917 17.7739 9.56693 17.6851C9.74213 17.5963 9.89393 17.4674 10.01 17.309C10.6959 16.3816 12.0182 14.518 13.1601 12.457C14.5797 9.89084 15.3006 7.78731 15.3006 6.20481C15.3006 2.88336 12.4742 0.180176 9.00042 0.180176ZM9.00042 9.00051C8.50201 9.00051 8.01473 8.85273 7.60036 8.57579C7.18591 8.29893 6.86292 7.90533 6.67216 7.44483C6.48143 6.98433 6.43152 6.47763 6.52876 5.98878C6.626 5.49993 6.86603 5.05086 7.21842 4.69844C7.57092 4.34601 8.01991 4.10601 8.50879 4.00878C8.99764 3.9115 9.50431 3.96141 9.96485 4.15218C10.4253 4.3429 10.8189 4.66593 11.0958 5.08038C11.3727 5.49475 11.5205 5.98199 11.5205 6.48044C11.5198 7.14854 11.2541 7.78911 10.7816 8.26157C10.3092 8.73404 9.6686 8.99976 9.00042 9.00051Z" fill="black"/>
</svg>
