<svg width="21" height="22" viewBox="0 0 21 22" fill="none" xmlns="http://www.w3.org/2000/svg">
<path d="M10.4593 13.9728C12.1012 13.9728 13.4323 12.6418 13.4323 10.9998C13.4323 9.3579 12.1012 8.02686 10.4593 8.02686C8.81737 8.02686 7.48633 9.3579 7.48633 10.9998C7.48633 12.6418 8.81737 13.9728 10.4593 13.9728Z" stroke="black"/>
<path d="M2.09306 9.6392C2.56718 9.9361 2.87223 10.4419 2.87223 10.9999C2.87222 11.558 2.56717 12.0638 2.09306 12.3607C1.77043 12.5627 1.56256 12.7242 1.41467 12.9163C1.09069 13.3372 0.947707 13.869 1.01718 14.3949C1.06927 14.7893 1.30301 15.1928 1.7705 15.9999C2.238 16.8069 2.47174 17.2104 2.7884 17.4526C3.21061 17.7755 3.74424 17.918 4.27189 17.8488C4.51271 17.8172 4.75693 17.7185 5.09372 17.5411C5.58884 17.2803 6.18094 17.2699 6.66592 17.549C7.15084 17.8281 7.43779 18.3443 7.45871 18.902C7.47296 19.2815 7.50934 19.5417 7.6023 19.7654C7.80597 20.2554 8.19661 20.6448 8.68826 20.8478C9.05708 21 9.52452 21 10.4595 21C11.3945 21 11.862 21 12.2308 20.8478C12.7224 20.6448 13.1131 20.2554 13.3168 19.7654C13.4097 19.5417 13.4461 19.2815 13.4603 18.9021C13.4812 18.3443 13.7682 17.8281 14.2532 17.549C14.7381 17.27 15.3301 17.2804 15.8252 17.5412C16.1621 17.7186 16.4063 17.8173 16.6471 17.8489C17.1747 17.9182 17.7084 17.7756 18.1306 17.4527C18.4472 17.2106 18.681 16.807 19.1486 16C19.3567 15.6407 19.5185 15.3614 19.6385 15.1272M18.8259 12.3608C18.3518 12.0639 18.0468 11.5581 18.0467 11.0001C18.0467 10.442 18.3518 9.9361 18.8259 9.6392C19.1486 9.4372 19.3564 9.2757 19.5042 9.0836C19.8282 8.66278 19.9712 8.13092 19.9018 7.60502C19.8497 7.2106 19.6159 6.80708 19.1484 6.00005C18.6809 5.19301 18.4471 4.7895 18.1305 4.54732C17.7083 4.22441 17.1746 4.0819 16.647 4.15113C16.4062 4.18274 16.162 4.2814 15.8252 4.45883C15.33 4.71964 14.738 4.73004 14.2531 4.45096C13.7682 4.1719 13.4812 3.6557 13.4603 3.09803C13.4461 2.71852 13.4097 2.45835 13.3168 2.23463C13.1131 1.74458 12.7224 1.35523 12.2308 1.15224C11.862 1 11.3945 1 10.4595 1C9.52452 1 9.05708 1 8.68826 1.15224C8.19661 1.35523 7.80597 1.74458 7.6023 2.23463C7.50934 2.45833 7.47296 2.71848 7.45871 3.09794C7.43778 3.65566 7.15082 4.17191 6.66588 4.45096C6.18093 4.73002 5.58888 4.71959 5.09381 4.4588C4.75698 4.28136 4.51274 4.18269 4.2719 4.15108C3.74425 4.08185 3.21062 4.22436 2.78841 4.54727C2.47175 4.78945 2.23801 5.19297 1.77051 6C1.56239 6.35929 1.4006 6.63859 1.28053 6.87273" stroke="black" stroke-linecap="round"/>
</svg>
