<svg width="50" height="50" viewBox="0 0 50 50" fill="none" xmlns="http://www.w3.org/2000/svg">
<path d="M47.8544 37.8654L39.7612 29.7722L31.7336 3.25933C30.8656 0.39583 27.2233 -0.454229 25.1774 1.72921C25.1155 1.7953 25.0559 1.86354 24.9988 1.9338C23.1104 -0.387197 19.4176 0.206397 18.3517 3.00228C18.3195 3.0869 18.2902 3.17265 18.2639 3.25933L10.2254 29.7832L2.14311 37.8764C1.11375 38.9022 1.11375 40.5691 2.14311 41.5949L9.29356 48.7278C10.3193 49.7572 11.9863 49.7572 13.0121 48.7278L23.5726 38.1651C24.1482 37.5911 24.6315 36.9315 25.0053 36.2096C25.3791 36.9315 25.8624 37.5911 26.438 38.1651L36.9986 48.7278C38.0243 49.7572 39.6913 49.7572 40.7171 48.7278L47.8675 41.5774C48.8889 40.5487 48.883 38.8868 47.8544 37.8654ZM11.7631 47.4898C11.4213 47.8319 10.8668 47.8319 10.525 47.4898L3.38114 40.3415C3.03901 39.9997 3.03901 39.4452 3.38114 39.1035L6.77374 35.7153L15.1557 44.0972L11.7631 47.4898ZM22.3258 36.9292L16.3981 42.8592L8.01176 34.4728L11.6165 30.8659C11.719 30.7645 11.7942 30.6388 11.8353 30.5006L19.9285 3.76681C20.3824 2.18382 22.3798 1.68589 23.5237 2.87052C23.9164 3.27718 24.1321 3.82274 24.1238 4.388V32.6048C24.1268 34.2279 23.481 35.7848 22.3302 36.9292L22.3258 36.9292ZM25.8693 32.5983V4.38144C25.8685 2.73466 27.6507 1.70456 29.0773 2.52728C29.5483 2.79894 29.8982 3.23979 30.0559 3.76024L38.1491 30.4941C38.1901 30.6323 38.2654 30.7579 38.3678 30.8593L42.1695 34.6609L33.5994 42.8657L27.6673 36.9292C26.5149 35.7832 25.869 34.2236 25.8737 32.5983H25.8693ZM46.612 40.3415L39.4637 47.4898C39.1219 47.8319 38.5674 47.8319 38.2257 47.4898L34.8418 44.1103L43.4119 35.9056L46.6076 39.1035C46.9522 39.4428 46.9561 39.9973 46.6164 40.3415H46.612Z" fill="black"/>
</svg>
